<?xml version="1.0" ?><!DOCTYPE svg  PUBLIC '-//W3C//DTD SVG 1.1//EN'  'http://www.w3.org/Graphics/SVG/1.1/DTD/svg11.dtd'><svg height="135px" style="enable-background:new 0 0 152 135;" version="1.1" viewBox="0 0 152 135" width="152px" xml:space="preserve" xmlns="http://www.w3.org/2000/svg" xmlns:xlink="http://www.w3.org/1999/xlink"><style type="text/css">
<![CDATA[
	.st0{fill:#EF3E42;}
	.st1{fill:#FFFFFF;}
	.st2{fill:none;}
	.st3{fill-rule:evenodd;clip-rule:evenodd;fill:#FFFFFF;}
]]>
</style><defs/><path d="M33.5,46.2l8.5,9.2c3.1-0.5,6.3-0.5,9.5,0l8.4-9.2c2.3,0.7,4.5,1.7,6.7,2.8l-0.5,12.5c2.5,1.9,4.8,4.1,6.7,6.7l12.4-0.5  c1.1,2.2,2,4.4,2.8,6.7l-9.2,8.5c0.5,3.1,0.5,6.3,0,9.5l9.2,8.4c-0.7,2.3-1.7,4.5-2.8,6.7l-12.5-0.5c-1.9,2.5-4.1,4.8-6.7,6.7  l0.5,12.4c-2.2,1.1-4.4,2-6.7,2.8l-8.5-9.2c-3.1,0.5-6.3,0.5-9.5,0l-8.4,9.2c-2.3-0.7-4.5-1.7-6.7-2.8l0.5-12.5  c-2.5-1.9-4.8-4.1-6.7-6.7l-12.4,0.5c-1.1-2.2-2-4.4-2.8-6.7l9.2-8.5c-0.5-3.1-0.5-6.3,0-9.5l-9.2-8.4c0.7-2.3,1.7-4.5,2.8-6.7  l12.5,0.5c1.9-2.5,4.1-4.8,6.7-6.7L26.8,49C29,47.9,31.2,47,33.5,46.2L33.5,46.2z M38.1,91.1c2,4.8,7.5,7.1,12.2,5.1  c4.8-2,7.1-7.5,5.1-12.2c-2-4.8-7.5-7.1-12.2-5.1C38.3,80.9,36.1,86.4,38.1,91.1L38.1,91.1z M106.8,53.6c0.8,3.6,4.3,5.8,7.9,5.1  c3.6-0.8,5.9-4.3,5.1-7.9c-0.8-3.6-4.3-5.8-7.9-5.1C108.3,46.5,106,50,106.8,53.6L106.8,53.6z M109.2,21.7l4.8,7.4  c2.2,0.1,4.5,0.4,6.6,1.2l7-5.4c1.5,0.8,3,1.7,4.3,2.8l-1.9,8.6c1.5,1.6,2.8,3.5,3.9,5.5l8.8,1.2c0.5,1.6,0.9,3.3,1.1,5l-7.4,4.8  c-0.1,2.2-0.4,4.5-1.2,6.6l5.4,7c-0.8,1.5-1.7,3-2.8,4.3l-8.6-1.9c-1.6,1.5-3.5,2.8-5.5,3.9l-1.2,8.8c-1.6,0.5-3.3,0.9-5,1.1  l-4.8-7.4c-2.2-0.1-4.5-0.4-6.6-1.2l-7,5.4c-1.5-0.8-3-1.7-4.3-2.8l1.9-8.6c-1.5-1.6-2.8-3.5-3.9-5.5L84,61.3  c-0.5-1.6-0.9-3.3-1.1-5l7.4-4.8c0.1-2.2,0.4-4.5,1.2-6.6l-5.4-7c0.8-1.5,1.7-3,2.8-4.3l8.6,1.9c1.6-1.5,3.5-2.8,5.5-3.9l1.2-8.8  C105.8,22.3,107.5,21.9,109.2,21.7L109.2,21.7z"/><rect class="st2" height="135" id="_x3C_Slice_x3E__100_" width="152"/></svg>