<?xml version="1.0" ?><!DOCTYPE svg  PUBLIC '-//W3C//DTD SVG 1.1//EN'  'http://www.w3.org/Graphics/SVG/1.1/DTD/svg11.dtd'><svg enable-background="new 0 0 30 30" height="30px" id="Capa_1" version="1.1" viewBox="0 0 30 30" width="30px" xml:space="preserve" xmlns="http://www.w3.org/2000/svg" xmlns:xlink="http://www.w3.org/1999/xlink"><path d="M12.4,16.7v3.8c1.2,0,0.4,0,2.4,0v-3.8c0-0.3-0.3-0.6-0.6-0.6H13C12.7,16.1,12.4,16.4,12.4,16.7z M18.7,12.9  c0-0.3-0.3-0.6-0.6-0.6H17c-0.3,0-0.6,0.3-0.6,0.6v7.6c1.2,0,0.4,0,2.4,0V12.9z M22.7,10.3c0-0.3-0.3-0.6-0.6-0.6h-1.2  c-0.3,0-0.6,0.3-0.6,0.6v10.1c1.2,0,0.4,0,2.4,0V10.3z M29.1,2H0.9C0.5,2,0.1,2.4,0.1,2.8v24.4c0,0.4,0.3,0.8,0.8,0.8h5.7  c0.4,0,0.8-0.3,0.8-0.8v-1.5c0-0.8,0.6-1.4,1.4-1.4c0.8,0,1.4,0.6,1.4,1.4v1.5c0,0.4,0.3,0.8,0.8,0.8h8.5c0.4,0,0.8-0.3,0.8-0.8  v-1.5c0-0.8,0.6-1.4,1.4-1.4c0.8,0,1.4,0.6,1.4,1.4v1.5c0,0.4,0.3,0.8,0.8,0.8h5.3c0.4,0,0.8-0.3,0.8-0.8V2.8  C29.9,2.4,29.5,2,29.1,2z M28.4,26.5h-3.8v-0.7c0-1.6-1.3-2.9-2.9-2.9c-1.6,0-2.9,1.3-2.9,2.9v0.7h-7v-0.7c0-1.6-1.3-2.9-2.9-2.9  c-1.6,0-2.9,1.3-2.9,2.9v0.7H1.6V3.5h26.7V26.5z M5.4,19.4h3.8c0.4,0,0.8-0.3,0.8-0.8s-0.3-0.8-0.8-0.8H5.7l0-0.4  c0.1-0.3,0.8-1.3,2.1-1.5c0.7,0.5,1.8,0.7,2.5,0.7c0.4,0,0.8-0.3,0.8-0.7c0-0.4-0.3-0.8-0.8-0.8c-0.6,0-1.5-0.3-1.6-0.5  c-0.2-0.2-0.4-0.3-0.6-0.3c-2.3,0.1-3.8,2.1-3.8,3v0.8C4.2,18.9,4.7,19.4,5.4,19.4z M10.3,14.6c1.8,0,3.2-1.7,3.2-3.9  c0-2.2-1.4-3.9-3.2-3.9s-3.2,1.8-3.2,3.9C7.1,12.8,8.5,14.6,10.3,14.6z M10.3,8.3c0.9,0,1.7,1.1,1.7,2.4c0,1.3-0.8,2.4-1.7,2.4  S8.6,12,8.6,10.7C8.6,9.4,9.4,8.3,10.3,8.3z" fill="#262324"/></svg>