<?xml version="1.0" ?><svg enable-background="new 0 0 64 64" version="1.1" viewBox="0 0 64 64" xml:space="preserve" xmlns="http://www.w3.org/2000/svg" xmlns:xlink="http://www.w3.org/1999/xlink"><g id="Shopping_7_Glyph"><path d="M31.002,39.347c-2.409,0-4.591-0.783-6.147-1.64l-1.112,4.364c1.408,0.82,3.814,1.491,6.295,1.603v3.541h3.63v-3.802   c4.257-0.747,6.59-3.58,6.59-6.899c0-3.358-1.779-5.408-6.183-6.975c-3.147-1.193-4.444-1.977-4.444-3.207   c0-1.045,0.778-2.089,3.184-2.089c2.668,0,4.371,0.859,5.333,1.269l1.073-4.215c-1.221-0.598-2.888-1.117-5.369-1.23v-3.283h-3.627   v3.544c-3.961,0.783-6.258,3.355-6.258,6.638c0,3.617,2.704,5.481,6.665,6.823c2.74,0.932,3.925,1.828,3.925,3.246   C34.556,38.527,33.112,39.347,31.002,39.347z"/><path d="M13.96,33.161c1.777,0.605,2.546,1.185,2.546,2.105c0,0.967-0.936,1.499-2.305,1.499c-1.562,0-2.978-0.508-3.987-1.063   l-0.721,2.83c0.913,0.532,2.473,0.967,4.082,1.04v2.296h2.354v-2.466c2.761-0.484,4.274-2.322,4.274-4.474   c0-2.178-1.154-3.507-4.01-4.524c-2.041-0.774-2.882-1.282-2.882-2.08c0-0.677,0.504-1.355,2.065-1.355   c1.73,0,2.835,0.557,3.459,0.823l0.696-2.733c-0.792-0.388-1.873-0.725-3.482-0.798v-2.129h-2.352v2.298   c-2.569,0.508-4.059,2.176-4.059,4.305C9.638,31.081,11.391,32.29,13.96,33.161z"/><path d="M48.505,36.765c-1.562,0-2.978-0.508-3.987-1.063l-0.721,2.83c0.913,0.532,2.473,0.967,4.082,1.04v2.296h2.354v-2.466   c2.761-0.484,4.274-2.322,4.274-4.474c0-2.178-1.154-3.507-4.01-4.524c-2.041-0.774-2.882-1.282-2.882-2.08   c0-0.677,0.504-1.355,2.065-1.355c1.73,0,2.835,0.557,3.459,0.823l0.696-2.733c-0.792-0.388-1.873-0.725-3.482-0.798v-2.129H48   v2.298c-2.569,0.508-4.059,2.176-4.059,4.305c0,2.345,1.754,3.555,4.323,4.425c1.777,0.605,2.546,1.185,2.546,2.105   C50.81,36.233,49.873,36.765,48.505,36.765z"/><path d="M0,32c0,17.673,14.327,32,32,32c17.673,0,32-14.327,32-32S49.673,0,32,0C14.327,0,0,14.327,0,32z M32,5   c14.888,0,27,12.112,27,27c0,14.888-12.112,27-27,27S5,46.888,5,32C5,17.112,17.112,5,32,5z"/></g></svg>