<?xml version="1.0" standalone="no"?>
<!DOCTYPE svg PUBLIC "-//W3C//DTD SVG 20010904//EN"
 "http://www.w3.org/TR/2001/REC-SVG-20010904/DTD/svg10.dtd">
<svg version="1.0" xmlns="http://www.w3.org/2000/svg"
 width="128.000000pt" height="128.000000pt" viewBox="0 0 128.000000 128.000000"
 preserveAspectRatio="xMidYMid meet">
<metadata>
Created by potrace 1.15, written by Peter Selinger 2001-2017
</metadata>
<g transform="translate(0.000000,128.000000) scale(0.100000,-0.100000)"
fill="#000000" stroke="none">
<path d="M205 1128 c-110 -55 -202 -102 -204 -104 -5 -4 78 -300 91 -326 7
-14 25 -18 91 -20 l82 -3 5 -310 5 -310 365 0 365 0 5 310 5 310 83 3 c79 3
83 4 93 29 18 49 92 313 88 317 -2 2 -95 49 -206 105 l-203 101 -232 -1 -233
0 -200 -101z m635 37 c0 -28 -70 -93 -117 -109 -93 -32 -188 -11 -248 55 -62
69 -61 69 165 69 171 0 200 -2 200 -15z m-382 -115 c71 -59 190 -77 287 -43
55 18 131 87 141 127 l6 25 161 -81 c89 -44 163 -81 165 -83 2 -1 -14 -62 -35
-133 l-38 -131 -90 -3 -90 -3 -3 -312 -2 -313 -320 0 -320 0 -2 313 -3 312
-90 3 -90 3 -38 131 c-20 72 -36 132 -35 133 2 2 75 39 162 82 l160 80 19 -39
c11 -21 35 -52 55 -68z"/>
</g>
</svg>
