<?xml version="1.0"?>
<svg width="312.5" height="312.5" xmlns="http://www.w3.org/2000/svg" xmlns:xlink="http://www.w3.org/1999/xlink">
 <defs>
  <linearGradient id="linearGradient2807">
   <stop stop-color="#000022" stop-opacity="0" offset="0" id="stop2809"/>
   <stop stop-color="#000022" stop-opacity="0.39" offset="1" id="stop2811"/>
  </linearGradient>
  <mask id="mask2920">
   <path fill="#ffffff" fill-rule="evenodd" stroke-width="1.505051" stroke-linecap="round" stroke-linejoin="round" stroke-miterlimit="4" stroke-dashoffset="0" id="path2918" transform="matrix(0.996644,0,0,0.996644,2.02013,0.525168)" d="m304,156.5c0,82.290436 -66.709564,149 -149,149c-82.290428,0 -149,-66.709564 -149,-149c0,-82.290428 66.709572,-149 149,-149c82.290436,0 149,66.709572 149,149z"/>
  </mask>
  <radialGradient gradientTransform="matrix(2.573416,0,0,2.573416,-163.9033,-160.6078)" gradientUnits="userSpaceOnUse" xlink:href="#linearGradient2807" id="radialGradient2815" fy="100.92327" fx="105.2298" r="149" cy="100.92327" cx="105.2298"/>
 </defs>
 <g>
  <title>Layer 1</title>
  <path fill="#000000" fill-opacity="0.179487" fill-rule="evenodd" stroke-width="1.505051" stroke-linecap="round" stroke-linejoin="round" stroke-miterlimit="4" stroke-dashoffset="0" id="path3702" d="m304.173187,301.802216c0,5.079742 -60.378479,9.197693 -134.859085,9.197693c-74.480598,0 -134.859081,-4.11795 -134.859081,-9.197693c0,-5.079773 60.378483,-9.197723 134.859081,-9.197723c74.480606,0 134.859085,4.11795 134.859085,9.197723z"/>
  <path fill="#000000" fill-opacity="0.179487" fill-rule="evenodd" stroke-width="1.505051" stroke-linecap="round" stroke-linejoin="round" stroke-miterlimit="4" stroke-dashoffset="0" id="path4591" d="m263.66394,301.388855c0,3.025116 -39.465866,5.477448 -88.149445,5.477448c-48.683578,0 -88.149429,-2.452332 -88.149429,-5.477448c0,-3.025146 39.465851,-5.477478 88.149429,-5.477478c48.683578,0 88.149445,2.452332 88.149445,5.477478z"/>
  <path fill="#000000" fill-opacity="0.179487" fill-rule="evenodd" stroke-width="1.505051" stroke-linecap="round" stroke-linejoin="round" stroke-miterlimit="4" stroke-dashoffset="0" id="path4593" d="m281.851746,301.611786c0,4.133331 -49.08934,7.484039 -109.644119,7.484039c-60.554787,0 -109.644146,-3.350708 -109.644146,-7.484039c0,-4.133301 49.089359,-7.484009 109.644146,-7.484009c60.554779,0 109.644119,3.350708 109.644119,7.484009z"/>
  <path fill="#ffffff" fill-rule="evenodd" stroke-width="1.505051" stroke-linecap="round" stroke-linejoin="round" stroke-miterlimit="4" stroke-dashoffset="0" id="path2916" d="m304.999908,154.499954c0,82.014267 -66.485703,148.499954 -148.499954,148.499954c-82.014267,0 -148.499974,-66.485687 -148.499974,-148.499954c0,-82.014267 66.485707,-148.499954 148.499974,-148.499954c82.014252,0 148.499954,66.485687 148.499954,148.499954z"/>
  <path fill="url(#radialGradient2815)" fill-rule="evenodd" stroke-width="1.505051" stroke-linecap="round" stroke-linejoin="round" stroke-miterlimit="4" stroke-dashoffset="0" id="path1918" d="m304.999908,154.499954c0,82.014267 -66.485703,148.499954 -148.499954,148.499954c-82.014267,0 -148.499974,-66.485687 -148.499974,-148.499954c0,-82.014267 66.485707,-148.499954 148.499974,-148.499954c82.014252,0 148.499954,66.485687 148.499954,148.499954z"/>
  <g id="g2893" mask="url(#mask2920)">
   <g id="g2878">
    <path fill="none" fill-rule="evenodd" stroke="#000000" stroke-width="2.305674" stroke-miterlimit="4" stroke-dashoffset="0" id="path623" d="m298.359406,107.318283c-4.394623,-6.844505 -8.634918,-10.005226 -17.003143,-12.109772"/>
    <path fill="none" fill-opacity="0.75" fill-rule="evenodd" stroke="#000000" stroke-width="1.5" stroke-miterlimit="4" id="path1939" d="m50.000019,43.375l13.5,13.75"/>
    <path fill="none" fill-opacity="0.75" fill-rule="evenodd" stroke="#000000" stroke-width="1.5" stroke-miterlimit="4" id="path1941" d="m48.000019,90c-30.656969,21.956131 -38.125069,66.505707 -36.999999,66.25"/>
    <path fill="none" fill-opacity="0.75" fill-rule="evenodd" stroke="#000000" stroke-width="1.5" stroke-miterlimit="4" id="path1943" d="m87.000023,93.25c-3.16127,23.337067 5.25148,48.914261 22.75,76.25"/>
    <path fill="none" fill-opacity="0.75" fill-rule="evenodd" stroke="#000000" stroke-width="1.5" stroke-miterlimit="4" id="path1945" d="m29.125019,204.875c14.426731,14.423843 33.602081,12.209503 51.625004,12.625"/>
    <path fill="none" fill-opacity="0.75" fill-rule="evenodd" stroke="#000000" stroke-width="1.5" stroke-miterlimit="4" id="path1947" d="m124.627586,262.858673c-3.122314,8.251587 -2.315163,19.684143 -0.530334,31.908203"/>
    <path fill="none" fill-opacity="0.75" fill-rule="evenodd" stroke="#000000" stroke-width="1.5" stroke-miterlimit="4" id="path1949" d="m103.060822,26.419849c11.476982,-11.491099 36.094971,-18.9077 68.235809,-22.27386"/>
    <path fill="none" fill-opacity="0.75" fill-rule="evenodd" stroke="#000000" stroke-width="1.5" stroke-miterlimit="4" id="path1951" d="m237.322723,48.074989c-7.987152,-14.875778 -22.057953,-26.564859 -36.947708,-37.824989"/>
    <path fill="none" fill-opacity="0.75" fill-rule="evenodd" stroke="#000000" stroke-width="1.5" stroke-miterlimit="4" id="path1953" d="m127.986343,52.052471c17.642807,1.987198 49.487076,4.601089 74.776535,18.915112"/>
    <path fill="none" fill-opacity="0.75" fill-rule="evenodd" stroke="#000000" stroke-width="1.5" stroke-miterlimit="4" id="path1964" d="m222.5,122c-15.122406,20.852997 -33.377853,40.313538 -54.5,58.5"/>
    <path fill="none" fill-opacity="0.75" fill-rule="evenodd" stroke="#000000" stroke-width="1.5" stroke-miterlimit="4" id="path1966" d="m177.5,236.25c19.357742,10.800507 40.560684,15.444855 66.25,11.25"/>
    <path fill="none" fill-opacity="0.75" fill-rule="evenodd" stroke="#000000" stroke-width="1.5" stroke-miterlimit="4" id="path1968" d="m268.5,134.5c9.881012,18.552139 11.331116,44.886658 12.75,71.25"/>
    <path fill="none" fill-opacity="0.75" fill-rule="evenodd" stroke="#000000" stroke-width="1.5" stroke-miterlimit="4" id="path1970" d="m277.75,94.75c8.13916,0.273643 16.026611,4.574417 23.5,15.5"/>
   </g>
   <g id="g2870">
    <path fill="#000000" fill-rule="evenodd" stroke-width="1px" id="path1972" d="m40.25,96c20.65398,3.618652 29.152893,2.159782 46.25,3.75c10.106781,-13.261726 27.26236,-30.047836 45.25,-47.25c-7.423737,-11.584721 -14.430519,-23.44108 -23.25,-30.75c-22.390266,7.59053 -38.335182,16.938889 -53.5,26.5c-9.51825,16.574043 -14.564709,32.509247 -14.75,47.75z"/>
    <path fill="#000000" fill-rule="evenodd" stroke-width="1px" id="path2860" d="m198,68.75c6.792862,18.669037 12.634506,35.435669 21.25,57.75c17.725983,4.680786 36.625763,10.300613 51.25,12.5c4.700775,-9.437485 7.810852,-27.623703 11.25,-44c-11.680328,-18.118156 -28.341003,-33.74617 -45.25,-49.25c-12.435638,4.485119 -25.403625,13.228981 -38.5,23z"/>
    <path fill="#000000" fill-rule="evenodd" stroke-width="1px" id="path2862" d="m106.75,165c22.794724,3.75 44.787323,7.5 66.25,11.25c6.635559,20.833328 7.494293,41.666672 9.75,62.5c-16.409546,13.635681 -39.038528,17.9422 -59,26.25c-23.226349,-15.013367 -32.683197,-31.747925 -46,-48c7.646851,-17.585815 16.082352,-35.073044 29,-52z"/>
    <path fill="#000000" fill-rule="evenodd" stroke-width="1px" id="path2864" d="m1.06066,146.804779c0.03223,1.047775 8.04678,2.226013 10.96015,1.060654c3.34635,21.417908 7.7287,42.145142 19.445439,57.982773c-2.293989,11.223267 -0.134449,20.219757 3.181982,28.637817c-20.318372,5.694672 -18.552162,8.773956 -26.516501,12.374374"/>
    <path fill="#000000" fill-rule="evenodd" stroke-width="1px" id="path2866" d="m75.660423,282.392517c19.310677,5.112518 33.378616,15.036743 48.26004,9.899475c4.376823,6.199921 16.486382,10.683563 48.08326,12.020813l-85.913475,7.60141"/>
    <path fill="#000000" fill-rule="evenodd" stroke-width="1px" id="path2868" d="m299.625,210.625c-5.63736,-4.154312 -11.469208,-8.114136 -18.75,-10.625c-14.5,19.317398 -29,41.307724 -43.5,48.25c-0.267258,11.909119 -2.123154,22.547302 -7.375,30.46875c10.951187,0.738525 22.38887,0.698639 35,-1.21875"/>
   </g>
  </g>
  <path fill="none" fill-rule="evenodd" stroke="#000000" stroke-width="1.5" stroke-linecap="round" stroke-linejoin="round" stroke-miterlimit="4" stroke-dashoffset="0" id="path2923" d="m304.999908,154.499954c0,82.014267 -66.485703,148.499954 -148.499954,148.499954c-82.014267,0 -148.499974,-66.485687 -148.499974,-148.499954c0,-82.014267 66.485707,-148.499954 148.499974,-148.499954c82.014252,0 148.499954,66.485687 148.499954,148.499954z"/>
  <g id="svg_10">
   <g id="svg_9">
    <path fill="#3f7f00" d="m21.567513,167.482605c28.229546,12.646942 31.950714,14.416473 60.51918,27.227936c1.562576,0.724686 2.79435,1.281998 3.917648,1.859894c1.959404,1.111404 2.98542,2.155457 4.91317,-0.616608c0.651596,-0.68959 1.786079,-1.324738 2.532257,-2.638977c68.370682,-66.200699 119.826263,-118.000656 188.19696,-184.201508c12.022369,-12.664285 36.946899,-3.31951 25.814636,10.582596c-70.21582,85.295654 -116.340561,143.447083 -150.479599,190.629593c-14.597092,20.117905 -27.066483,38.247681 -38.272827,55.598755c-7.360512,11.182678 -14.087181,22.041901 -20.32476,32.900726c-1.807709,3.286652 -3.317413,5.598999 -5.666679,7.455658c-3.67794,2.735779 -7.713326,3.032166 -11.681541,0.744446c-1.488075,-1.019897 -2.935242,-2.299866 -4.395149,-4.184357c-0.875862,-1.130371 -1.756744,-2.594208 -2.65345,-4.026611l-21.36198,-36.757202l-24.05319,-44.291077c-6.583845,-12.123901 -11.860649,-22.189499 -22.065682,-40.633438c-1.11639,-1.736862 -4.309839,-6.256302 -3.378968,-9.626831c0.8009,-3.849594 4.819762,-5.944992 9.070156,-4.141983c3.814083,1.681229 7.626852,3.427383 9.369318,4.118591l0.000502,0.000397z" class="fil0"/>
   </g>
   <g id="svg_8">
    <path fill="#3f7f00" d="m10.553006,167.418106c26.817119,12.12709 48.64154,21.851532 75.778285,34.136734c1.87178,0.853729 3.769035,1.085999 5.657021,-0.633926c64.950607,-63.478638 128.442093,-125.731323 193.3927,-189.214146c8.51355,-8.02264 24.911774,-3.10215 19.651581,4.33353c-115.074463,138.628021 -175.555038,219.741623 -212.214737,283.792892c-3.33168,5.850616 -9.65728,5.519958 -13.088165,-0.092346c-8.081192,-13.410309 -20.281918,-34.445648 -20.615429,-34.973145c-25.998001,-47.408325 -26.827545,-49.384354 -51.64473,-94.663437c-1.171397,-2.219589 1.367606,-3.843155 3.081121,-2.689011l0.002354,0.002853z" class="fil1"/>
   </g>
  </g>
 </g>
</svg>