<?xml version="1.0" encoding="UTF-8" standalone="no"?>
<svg
   xmlns:dc="http://purl.org/dc/elements/1.1/"
   xmlns:cc="http://web.resource.org/cc/"
   xmlns:rdf="http://www.w3.org/1999/02/22-rdf-syntax-ns#"
   xmlns:svg="http://www.w3.org/2000/svg"
   xmlns="http://www.w3.org/2000/svg"
   xmlns:xlink="http://www.w3.org/1999/xlink"
   xmlns:sodipodi="http://sodipodi.sourceforge.net/DTD/sodipodi-0.dtd"
   xmlns:inkscape="http://www.inkscape.org/namespaces/inkscape"
   version="1.0"
   width="550"
   height="700"
   id="svg2"
   sodipodi:version="0.32"
   inkscape:version="0.44.1"
   sodipodi:docname="Green_Arrow_Up_Darker.svg"
   sodipodi:docbase="C:\Documents and Settings\Administrator\Desktop">
  <metadata
     id="metadata11">
    <rdf:RDF>
      <cc:Work
         rdf:about="">
        <dc:format>image/svg+xml</dc:format>
        <dc:type
           rdf:resource="http://purl.org/dc/dcmitype/StillImage" />
      </cc:Work>
    </rdf:RDF>
  </metadata>
  <defs
     id="defs9">
    <linearGradient
       id="linearGradient2764">
      <stop
         style="stop-color:white;stop-opacity:1;"
         offset="0"
         id="stop2766" />
      <stop
         style="stop-color:white;stop-opacity:0;"
         offset="1"
         id="stop2768" />
    </linearGradient>
    <linearGradient
       inkscape:collect="always"
       xlink:href="#linearGradient2764"
       id="linearGradient2775"
       gradientUnits="userSpaceOnUse"
       gradientTransform="matrix(0.762173,0,0,0.963619,18.67308,36.25935)"
       x1="166.66667"
       y1="-75.238083"
       x2="385.92593"
       y2="445.50266" />
  </defs>
  <sodipodi:namedview
     inkscape:window-height="955"
     inkscape:window-width="1280"
     inkscape:pageshadow="2"
     inkscape:pageopacity="0.0"
     guidetolerance="10.0"
     gridtolerance="10.0"
     objecttolerance="10.0"
     borderopacity="1.0"
     bordercolor="#666666"
     pagecolor="#ffffff"
     id="base"
     inkscape:zoom="0.54"
     inkscape:cx="350"
     inkscape:cy="325.92593"
     inkscape:window-x="-4"
     inkscape:window-y="-4"
     inkscape:current-layer="svg2"
     height="700px"
     width="550px" />
  <path
     style="fill:black;fill-opacity:0.51602568;stroke:none;stroke-width:20;stroke-linejoin:round;stroke-miterlimit:4;stroke-opacity:0.51764706"
     d="M 273.93496,33.772088 C 273.55131,33.863209 273.66333,34.300064 273.59929,34.436064 C 273.47132,34.708063 273.39715,34.872208 273.31162,35.069816 C 273.14066,35.464951 272.94422,35.931814 272.68821,36.548517 C 272.17638,37.782066 271.4502,39.567223 270.50654,41.890182 C 268.61935,46.535943 265.86311,53.351123 262.37934,62.019252 C 255.4119,79.355513 245.48419,104.1359 233.58661,133.90468 C 209.79089,193.4416 178.11318,272.90011 146.44073,352.42719 C 114.76797,431.95506 83.109778,511.54393 59.366705,571.37258 C 47.495169,601.28689 37.59778,626.27711 30.669703,643.83153 C 27.205668,652.60913 24.478079,659.52018 22.614386,664.29278 C 21.682557,666.6787 20.977465,668.51642 20.480711,669.8151 C 20.232302,670.46444 20.035183,670.9662 19.881358,671.3844 C 19.804441,671.5939 19.749449,671.77191 19.665578,672.0187 C 19.623643,672.1417 19.580344,672.28351 19.497754,672.56138 C 19.415196,672.83925 18.99643,671.22918 18.99431,675.97173 C 18.994001,676.66102 19.048162,677.3494 19.162135,678.0242 C 19.204866,678.30515 19.270546,678.57065 19.329961,678.83861 C 20.813882,684.40454 24.786601,686.70666 29.111386,686.02107 C 29.363699,685.94288 29.489758,685.87978 29.590868,685.84018 C 29.793065,685.76018 29.896088,685.72537 29.97444,685.68905 C 30.131152,685.61717 30.214637,685.58602 30.310091,685.53869 C 33.711278,683.73227 37.105612,681.90533 40.499083,680.07589 C 46.983449,676.57786 56.300877,671.5237 67.781605,665.28887 C 90.743417,652.819 122.32608,635.64703 156.98913,616.73127 L 279.9524,549.61407 L 403.15529,616.73127 C 437.87728,635.65177 475.26316,655.94049 492.50687,665.25833 C 509.75059,674.57616 514.96634,677.35317 519.83731,679.95529 C 524.7083,682.5574 526.04563,683.2485 527.36519,683.93884 C 528.68474,684.62921 529.06183,684.82969 529.45094,685.02499 C 529.84005,685.22028 529.98482,685.27152 530.17011,685.35702 C 530.3554,685.4425 530.47566,685.52132 530.67362,685.59899 C 530.87156,685.67665 531.03071,685.72901 531.32088,685.80964 C 535.24631,686.88585 540.05275,679.63933 539.99956,672.44078 C 538.55044,665.02989 534.45088,658.03954 529.21122,644.73678 C 523.97156,631.43399 512.56093,602.52066 500.77786,572.73122 C 477.21175,513.15238 445.71948,433.73174 414.18349,354.23848 C 382.64749,274.7452 351.05326,195.17049 327.25336,135.35338 C 315.35344,105.4445 305.41176,80.466268 298.38843,62.89443 C 294.877,54.10851 291.79808,47.353818 290.16535,42.403183 C 286.98468,32.759011 281.60476,31.950441 273.93496,33.772088 z M 34.169907,678.56688 C 34.168353,678.76762 33.937268,679.27774 33.882228,679.32177 C 33.947223,679.14621 34.170734,678.46014 34.169907,678.56688 z "
     id="path2772"
     sodipodi:nodetypes="cssssscssssssssssccssccsccczzzzzzcczsscssscss" />
  <path
     id="path6"
     style="fill:#0c0;stroke:none"
     d="M 10,675.32795 C 10,673.57572 270.18681,15.33843 270.61787,16.000147 C 272.06416,18.220368 530.86061,675.49217 530.38444,675.73581 C 530.07343,675.89493 471.43429,643.97006 400.07526,604.79165 L 270.33156,533.55814 L 140.79871,604.77908 C 69.555639,643.95057 10.981041,675.99999 10.63293,675.99999 C 10.284823,675.99999 10.000007,675.69756 10.000007,675.32795 L 10,675.32795 z " />
  <path
     id="path1877"
     style="fill:url(#linearGradient2775);fill-opacity:1;stroke:none"
     d="M 18.673084,663.35231 C 18.673084,661.66397 270.18698,27.362479 270.60372,28.000134 C 272.00177,30.139626 522.17165,663.51075 521.71138,663.74542 C 521.41073,663.89891 464.72622,633.13465 395.74582,595.38106 L 270.32691,526.73776 L 145.11186,595.36888 C 76.243528,633.11614 19.621415,663.99999 19.284912,663.99999 C 18.948409,663.99999 18.673092,663.70871 18.673092,663.35231 L 18.673084,663.35231 z " />
</svg>
