<?xml version="1.0" encoding="UTF-8" standalone="no"?>
<svg
   xmlns:dc="http://purl.org/dc/elements/1.1/"
   xmlns:cc="http://web.resource.org/cc/"
   xmlns:rdf="http://www.w3.org/1999/02/22-rdf-syntax-ns#"
   xmlns:svg="http://www.w3.org/2000/svg"
   xmlns="http://www.w3.org/2000/svg"
   xmlns:xlink="http://www.w3.org/1999/xlink"
   xmlns:sodipodi="http://sodipodi.sourceforge.net/DTD/sodipodi-0.dtd"
   xmlns:inkscape="http://www.inkscape.org/namespaces/inkscape"
   version="1.0"
   width="550"
   height="700"
   id="svg2"
   sodipodi:version="0.32"
   inkscape:version="0.44.1"
   sodipodi:docname="Red_Arrow_Down.svg"
   sodipodi:docbase="C:\Documents and Settings\Administrator\Desktop">
  <metadata
     id="metadata11">
    <rdf:RDF>
      <cc:Work
         rdf:about="">
        <dc:format>image/svg+xml</dc:format>
        <dc:type
           rdf:resource="http://purl.org/dc/dcmitype/StillImage" />
      </cc:Work>
    </rdf:RDF>
  </metadata>
  <defs
     id="defs9">
    <linearGradient
       id="linearGradient2764">
      <stop
         style="stop-color:white;stop-opacity:1;"
         offset="0"
         id="stop2766" />
      <stop
         style="stop-color:white;stop-opacity:0;"
         offset="1"
         id="stop2768" />
    </linearGradient>
    <linearGradient
       inkscape:collect="always"
       xlink:href="#linearGradient2764"
       id="linearGradient2775"
       gradientUnits="userSpaceOnUse"
       gradientTransform="matrix(0.775765,0,0,-0.963618,18.82775,651.879)"
       x1="128.35211"
       y1="801.08893"
       x2="330.00333"
       y2="211.04675" />
  </defs>
  <sodipodi:namedview
     inkscape:window-height="955"
     inkscape:window-width="1280"
     inkscape:pageshadow="2"
     inkscape:pageopacity="0.0"
     guidetolerance="10.0"
     gridtolerance="10.0"
     objecttolerance="10.0"
     borderopacity="1.0"
     bordercolor="#666666"
     pagecolor="#ffffff"
     id="base"
     inkscape:zoom="0.54"
     inkscape:cx="350"
     inkscape:cy="325.92593"
     inkscape:window-x="-4"
     inkscape:window-y="-4"
     inkscape:current-layer="svg2"
     width="550px"
     height="700px" />
  <path
     style="fill:black;fill-opacity:0.51602568;stroke:none;stroke-width:20;stroke-linejoin:round;stroke-miterlimit:4;stroke-opacity:0.51764706"
     d="M 280.57414,680.22028 C 280.20007,680.12942 280.30929,679.6938 280.24686,679.55818 C 280.12207,679.28695 280.04976,679.12328 279.96636,678.92622 C 279.79967,678.53221 279.60814,678.06667 279.35851,677.45172 C 278.85945,676.22166 278.15139,674.44158 277.23128,672.12521 C 275.39118,667.49262 272.70371,660.69676 269.30687,652.05322 C 262.51329,634.76612 252.83332,610.056 241.23262,580.37164 C 218.03067,521.00356 187.14343,441.77038 156.26131,362.46882 C 125.37889,283.16648 94.51067,203.80331 71.360063,144.14432 C 59.784761,114.31485 50.134344,89.395485 43.379145,71.890849 C 40.001548,63.138136 37.342022,56.246691 35.524834,51.487622 C 34.616256,49.108467 33.928759,47.275958 33.444401,45.98096 C 33.202191,45.333461 33.009991,44.833123 32.860004,44.416109 C 32.785007,44.207203 32.731386,44.029698 32.649609,43.783608 C 32.60872,43.660956 32.5665,43.519548 32.485972,43.242466 C 32.405473,42.965385 31.997158,44.57089 31.995091,39.841786 C 31.99479,39.15446 32.047599,38.468032 32.158728,37.795145 C 32.200393,37.514991 32.264433,37.250244 32.322366,36.983044 C 33.769259,31.432895 37.642846,29.137303 41.859713,29.820948 C 42.10573,29.898917 42.228643,29.961838 42.32723,30.001325 C 42.524382,30.081099 42.624834,30.11581 42.70123,30.152027 C 42.854032,30.223704 42.935433,30.254765 43.028505,30.301961 C 46.344822,32.103259 49.654457,33.925019 52.96325,35.749272 C 59.28581,39.237375 68.370738,44.277205 79.564983,50.494357 C 101.95382,62.928861 132.7484,80.052134 166.5465,98.914254 L 286.44143,165.84113 L 406.57,98.914254 C 440.42558,80.047407 476.87855,59.816221 493.69197,50.52481 C 510.5054,41.233399 515.59101,38.464272 520.34044,35.869531 C 525.08988,33.274798 526.39383,32.585657 527.68047,31.897275 C 528.96709,31.208862 529.33477,31.00895 529.71417,30.814205 C 530.09357,30.619468 530.23473,30.568374 530.4154,30.483115 C 530.59606,30.397878 530.71333,30.319281 530.90635,30.241832 C 531.09935,30.164392 531.25451,30.11218 531.53745,30.031779 C 535.36493,28.95862 540.05143,36.184594 539.99957,43.362724 C 538.5866,50.752602 534.58934,57.723133 529.48044,70.988166 C 524.37152,84.253228 513.24563,113.08457 501.75658,142.78953 C 478.77852,202.19942 448.07208,281.39484 417.32302,360.66267 C 386.57395,439.93052 355.76809,519.27957 332.56207,578.92705 C 320.9591,608.75111 311.2655,633.65851 304.41742,651.18052 C 300.99361,659.94152 297.99153,666.67706 296.39954,671.61366 C 293.29823,681.23048 288.05256,682.03676 280.57414,680.22028 z M 46.792008,37.254003 C 46.790492,37.053833 46.565173,36.545159 46.511507,36.501254 C 46.57488,36.676317 46.792813,37.360441 46.792008,37.254003 z "
     id="path2772"
     sodipodi:nodetypes="cssssscssssssssssccssccsccczzzzzzcczsscssscss" />
  <path
     id="path6"
     style="fill:#ff1818;fill-opacity:1;stroke:none"
     d="M 10,12.810688 C 10,14.562918 274.82694,672.79987 275.26569,672.13815 C 276.73778,669.91793 540.14957,12.646468 539.66491,12.402828 C 539.34834,12.243708 479.66344,44.168568 407.03181,83.346958 L 274.97427,154.58043 L 143.13135,83.359528 C 70.617745,44.188058 10.998536,12.138648 10.644218,12.138648 C 10.289902,12.138648 10.000008,12.441078 10.000008,12.810688 L 10,12.810688 z " />
  <path
     id="path1877"
     style="fill:url(#linearGradient2775);fill-opacity:1;stroke:none"
     d="M 18.827759,24.786328 C 18.827759,26.474668 274.82712,660.77582 275.25129,660.13817 C 276.67427,657.99868 531.30564,24.627888 530.83717,24.393218 C 530.53116,24.239728 472.83574,55.003968 402.62516,92.75754 L 274.96955,161.40081 L 147.52142,92.76972 C 77.424906,55.022478 19.793003,24.138648 19.450498,24.138648 C 19.107994,24.138648 18.827767,24.429928 18.827767,24.786328 L 18.827759,24.786328 z " />
</svg>
