<svg enable-background="new 0 0 24 24" id="Layer_1" version="1.0" viewBox="0 0 24 24" xml:space="preserve" xmlns="http://www.w3.org/2000/svg" xmlns:xlink="http://www.w3.org/1999/xlink" width="100%" height="100%" ><defs id="svgEditorDefs"><polygon id="svgEditorShapeDefs" fill="khaki" stroke="black" style="vector-effect: non-scaling-stroke; stroke-width: 1px;"/></defs><rect id="svgEditorBackground" x="0" y="0" width="24" height="24" style="fill: none; stroke: none;"/><circle cx="6" cy="20" r="2"/><circle cx="14" cy="4" r="2"/><polygon points="15.6,9.1 13.5,14.5 8.7,13.2 10.5,8.8 11.2,6.4 15.2,7.5"/><path d="M7.2,11.6 l0.5,-1.1 C8.2,9.4 9,8.5 10,7.9 l0,0 c0.8,-0.5 1.7,-0.7 2.7,-0.5 l1.7,0.4 c0.7,0.1 1.3,0.4 2,0.7 L21,11" fill="none" stroke="#000000" stroke-miterlimit="10" stroke-width="2"/><line fill="none" stroke="#000000" stroke-linejoin="round" stroke-miterlimit="10" stroke-width="2" x1="13.2" x2="10" y1="12.5" y2="21"/><line fill="none" stroke="#000000" stroke-linejoin="round" stroke-miterlimit="10" stroke-width="2" x1="10.8" x2="8.5" y1="11" y2="16.1"/><g style="vector-effect: non-scaling-stroke; stroke-width: 1px;" stroke="black" id="e27_shape" fill="forestgreen" transform="matrix(0.0936305, 0, 0, 0.0649171, 11.9966, 16.1436)"><path d="M104,72v16h-16c-7.439002990722656,0,-14.097999572753906,-3.4029998779296875,-18.503997802734375,-8.733001708984375c-1.8069992065429688,5.370002746582031,-4.536003112792969,10.317001342773438,-8.002998352050781,14.652999877929688c7.0619964599609375,6.263999938964844,16.345001220703125,10.079002380371094,26.506996154785156,10.079002380371094h16v16l24,-24l-24,-24Z"/><path d="M104,8 v16 h-16 c-22.056,0 -40,17.944 -40,40 c0,13.234 -10.766,24 -24,24 h-24 v16 h24 c22.056,0 40,-17.944 40,-40 c0,-13.234 10.766,-24 24,-24 h16 v16 l24,-24 l-24,-24 z"/><path d="M42.504,48.733 c1.807,-5.37 4.536,-10.316 8.003,-14.653 c-7.062,-6.264 -16.345,-10.079 -26.507,-10.079 h-24 v16 h24 c7.439,0 14.098,3.403 18.504,8.733 z"/></g></svg>