<?xml version="1.0" ?><!DOCTYPE svg  PUBLIC '-//W3C//DTD SVG 1.1//EN'  'http://www.w3.org/Graphics/SVG/1.1/DTD/svg11.dtd'><svg enable-background="new 0 0 512 512" height="512px" id="Layer_1" version="1.1" viewBox="0 0 512 512" width="512px" xml:space="preserve" xmlns="http://www.w3.org/2000/svg" xmlns:xlink="http://www.w3.org/1999/xlink"><path d="M233.301,303.456c-4.158-4.427-6.162-10.397-6.008-18.021H199.07c1.347,15.752,6.197,27.683,14.594,35.813  c8.435,8.165,20.061,12.746,35.04,13.82v17.02h11.782v-17.02c10.012-0.653,18.211-2.7,24.641-6.007  c6.353-3.354,11.477-7.16,15.285-11.436c3.816-4.237,6.434-8.59,7.897-13.095c1.458-4.47,2.193-8.161,2.193-11.087  c0-3.309-0.232-7.126-0.692-11.401c-0.463-4.306-1.966-8.548-4.504-12.82c-2.505-4.273-6.473-8.357-11.783-12.282  c-5.355-3.969-12.939-7.282-22.833-9.899c-1.89-0.573-3.66-1-5.278-1.424c-1.693-0.422-3.312-0.77-4.927-1.19V209  c4.543,0,8.396,1.853,11.59,5.624c3.235,3.734,4.887,8.242,5.044,13.593h28.378c-0.386-6.932-1.847-12.937-4.391-17.979  c-2.541-5.126-5.814-9.321-9.78-12.75c-4.042-3.388-8.663-6.043-13.94-8.008c-5.273-1.926-10.896-3.195-16.9-3.889v-15.36h-11.784  v15.36c-6.004,0.382-11.823,1.539-17.443,3.539c-5.583,1.892-10.511,4.621-14.823,8.167c-4.237,3.543-7.665,7.891-10.242,13.089  c-2.621,5.198-3.927,11.24-3.927,18.022c0,6.665,1.153,12.243,3.428,16.714c2.229,4.462,5.27,8.202,9.086,11.204  c3.773,3,8.087,5.428,12.9,7.156c4.773,1.854,9.662,3.436,14.588,4.771c1.35,0.276,2.583,0.545,3.739,0.896  c1.115,0.303,2.002,0.614,2.693,0.88v41.818C242.541,310.655,237.381,307.884,233.301,303.456 M260.486,273.423  c7.856,2.159,13.441,4.549,16.71,7.127c3.271,2.58,4.89,6.503,4.89,11.7c0,3.197-0.653,5.971-2.004,8.279  c-1.346,2.351-3.002,4.314-5.078,5.895c-2.083,1.616-4.431,2.847-7.01,3.739c-2.58,0.843-5.124,1.422-7.508,1.689V273.423z   M234.879,235.802c-2.77-2.386-4.196-5.773-4.196-10.205c0-2.775,0.498-5.197,1.501-7.275c1.003-2.074,2.346-3.811,4.082-5.232  c1.734-1.387,3.696-2.426,5.854-3.087c2.113-0.689,4.313-0.999,6.582-0.999v32.615C242.27,240.155,237.69,238.228,234.879,235.802   M453.97,368.723V144.471H315.663c23.214,25.87,38.232,66.459,38.232,112.127c0,45.666-15.019,86.251-38.232,112.125H453.97  L453.97,368.723z M0,426.441h512V85.559H0V426.441z M483.31,398.063H28.685V115.095H483.31V398.063z M158.101,256.598  c0-45.667,14.976-86.257,38.235-112.127H58.027v224.252h138.31C173.077,342.849,158.101,302.264,158.101,256.598"/></svg>